<mxfile host="app.diagrams.net" modified="2020-09-18T02:30:17.866Z" agent="5.0 (X11; Linux x86_64) AppleWebKit/537.36 (KHTML, like Gecko) Chrome/85.0.4183.102 Safari/537.36" etag="K7yNKTbOmd5_bnEZqoQa" version="13.7.3" type="github">
  <diagram id="6n9ja1hvaps9xksKR7pI" name="Page-1">
    <mxGraphModel dx="1422" dy="761" grid="1" gridSize="10" guides="1" tooltips="1" connect="1" arrows="1" fold="1" page="1" pageScale="1" pageWidth="850" pageHeight="1100" math="0" shadow="0">
      <root>
        <mxCell id="0" />
        <mxCell id="1" parent="0" />
        <mxCell id="MX-G9gX3bkZw7YuiPfqY-3" value="" style="edgeStyle=orthogonalEdgeStyle;rounded=0;orthogonalLoop=1;jettySize=auto;html=1;curved=1;" edge="1" parent="1" source="MX-G9gX3bkZw7YuiPfqY-1" target="MX-G9gX3bkZw7YuiPfqY-2">
          <mxGeometry relative="1" as="geometry" />
        </mxCell>
        <mxCell id="MX-G9gX3bkZw7YuiPfqY-1" value="" style="rounded=0;whiteSpace=wrap;html=1;" vertex="1" parent="1">
          <mxGeometry x="210" y="250" width="120" height="60" as="geometry" />
        </mxCell>
        <mxCell id="MX-G9gX3bkZw7YuiPfqY-5" value="" style="edgeStyle=orthogonalEdgeStyle;curved=1;rounded=0;orthogonalLoop=1;jettySize=auto;html=1;" edge="1" parent="1" source="MX-G9gX3bkZw7YuiPfqY-2" target="MX-G9gX3bkZw7YuiPfqY-4">
          <mxGeometry relative="1" as="geometry" />
        </mxCell>
        <mxCell id="MX-G9gX3bkZw7YuiPfqY-2" value="" style="whiteSpace=wrap;html=1;rounded=0;" vertex="1" parent="1">
          <mxGeometry x="460" y="270" width="120" height="60" as="geometry" />
        </mxCell>
        <mxCell id="MX-G9gX3bkZw7YuiPfqY-7" value="" style="edgeStyle=orthogonalEdgeStyle;curved=1;rounded=0;orthogonalLoop=1;jettySize=auto;html=1;" edge="1" parent="1" source="MX-G9gX3bkZw7YuiPfqY-4" target="MX-G9gX3bkZw7YuiPfqY-6">
          <mxGeometry relative="1" as="geometry" />
        </mxCell>
        <mxCell id="MX-G9gX3bkZw7YuiPfqY-4" value="abcd" style="shape=parallelogram;perimeter=parallelogramPerimeter;whiteSpace=wrap;html=1;fixedSize=1;rounded=0;" vertex="1" parent="1">
          <mxGeometry x="520" y="450" width="120" height="60" as="geometry" />
        </mxCell>
        <mxCell id="MX-G9gX3bkZw7YuiPfqY-9" value="" style="edgeStyle=orthogonalEdgeStyle;curved=1;rounded=0;orthogonalLoop=1;jettySize=auto;html=1;" edge="1" parent="1" source="MX-G9gX3bkZw7YuiPfqY-6" target="MX-G9gX3bkZw7YuiPfqY-8">
          <mxGeometry relative="1" as="geometry" />
        </mxCell>
        <mxCell id="MX-G9gX3bkZw7YuiPfqY-6" value="" style="shape=process;whiteSpace=wrap;html=1;backgroundOutline=1;rounded=0;" vertex="1" parent="1">
          <mxGeometry x="260" y="410" width="120" height="60" as="geometry" />
        </mxCell>
        <mxCell id="MX-G9gX3bkZw7YuiPfqY-11" value="" style="edgeStyle=orthogonalEdgeStyle;curved=1;rounded=0;orthogonalLoop=1;jettySize=auto;html=1;" edge="1" parent="1" source="MX-G9gX3bkZw7YuiPfqY-8" target="MX-G9gX3bkZw7YuiPfqY-10">
          <mxGeometry relative="1" as="geometry" />
        </mxCell>
        <mxCell id="MX-G9gX3bkZw7YuiPfqY-8" value="" style="ellipse;whiteSpace=wrap;html=1;rounded=0;" vertex="1" parent="1">
          <mxGeometry x="40" y="450" width="120" height="80" as="geometry" />
        </mxCell>
        <mxCell id="MX-G9gX3bkZw7YuiPfqY-12" value="" style="edgeStyle=orthogonalEdgeStyle;curved=1;rounded=0;orthogonalLoop=1;jettySize=auto;html=1;" edge="1" parent="1" source="MX-G9gX3bkZw7YuiPfqY-10" target="MX-G9gX3bkZw7YuiPfqY-1">
          <mxGeometry relative="1" as="geometry" />
        </mxCell>
        <mxCell id="MX-G9gX3bkZw7YuiPfqY-10" value="" style="whiteSpace=wrap;html=1;rounded=0;" vertex="1" parent="1">
          <mxGeometry x="30" y="270" width="120" height="60" as="geometry" />
        </mxCell>
      </root>
    </mxGraphModel>
  </diagram>
</mxfile>
